<svg width="800" height="400" viewBox="0 0 800 400" fill="none" xmlns="http://www.w3.org/2000/svg">
<path d="M76.3268 282.879V277.158H54.1992V314.368H76.3268V308.553H60.0148V298.246H74.1046V292.43H60.0148V282.879H76.3268Z" fill="white"/>
<path d="M145.032 277.158H134.441V314.369H145.032C156.853 314.369 164.228 307.229 164.228 295.787C164.228 284.298 156.853 277.111 145.032 277.158ZM145.08 308.553H140.257V282.927H144.985C153.165 282.927 158.318 287.891 158.318 295.787C158.318 303.636 153.212 308.553 145.08 308.553Z" fill="white"/>
<path d="M235.301 315.078C243.197 315.078 249.39 308.789 249.39 300.279V277.158H243.48V300.231C243.48 305.385 239.792 309.168 235.253 309.168C230.714 309.168 227.074 305.385 227.074 300.231V277.158H221.211V300.279C221.211 308.789 227.357 315.078 235.301 315.078Z" fill="white"/>
<path d="M325.677 314.983C331.209 314.983 335.323 312.525 338.538 309.404L335.134 304.676C332.58 307.229 329.318 309.121 325.488 309.121C318.822 309.121 312.297 303.305 312.297 295.787C312.297 288.364 318.727 282.454 325.488 282.454C329.129 282.454 332.533 284.156 335.134 286.757L338.538 282.17C334.897 278.624 330.406 276.591 325.583 276.497C315.134 276.497 306.387 285.291 306.387 295.787C306.387 306.284 315.134 314.983 325.677 314.983Z" fill="white"/>
<path d="M421.148 314.369H427.483L409.989 276.402H409.611L392.117 314.369H398.453L401.006 308.695H418.595L421.148 314.369ZM403.276 303.683L409.8 289.168L416.325 303.683H403.276Z" fill="white"/>
<path d="M502.323 277.158H476.508V282.926H486.484V314.368H492.347V282.926H502.323V277.158Z" fill="white"/>
<path d="M564.796 277.158H558.98V314.368H564.796V277.158Z" fill="white"/>
<path d="M641.388 314.983C651.979 314.983 660.678 306.331 660.678 295.787C660.678 285.196 651.979 276.497 641.435 276.497C630.844 276.497 622.191 285.196 622.191 295.787C622.191 306.331 630.844 314.983 641.388 314.983ZM641.388 309.073C634.059 309.073 628.102 303.069 628.102 295.74C628.102 288.411 634.059 282.407 641.388 282.407C648.763 282.407 654.768 288.411 654.768 295.74C654.768 303.069 648.763 309.073 641.388 309.073Z" fill="white"/>
<path d="M742.129 277.064V301.319L718.346 276.497H718.062V314.416H723.878V290.161L747.708 315.031H747.944V277.064H742.129Z" fill="white"/>
<path fill-rule="evenodd" clip-rule="evenodd" d="M487.961 199.088V165.421C487.961 160.638 491.845 156.754 496.628 156.754H529.515V199.088H487.961ZM531.515 156.754H572.816V199.088H531.515V156.754ZM574.816 156.754H616.961V199.088H574.816V156.754ZM618.961 156.754H660.31V199.088H618.961V156.754ZM662.31 156.754H703.612V199.088H662.31V156.754ZM705.612 156.754H739.295C744.078 156.754 747.961 160.638 747.961 165.421V199.088H705.612V156.754ZM747.961 201.088V234.754C747.961 239.538 744.078 243.421 739.295 243.421H705.612V201.088H747.961ZM703.612 243.421H662.31V201.088H703.612V243.421ZM660.31 243.421H618.961V201.088H660.31V243.421ZM616.961 243.421H574.816V201.088H616.961V243.421ZM572.816 243.421H531.515V201.088H572.816V243.421ZM529.515 243.421H496.628C491.845 243.421 487.961 239.538 487.961 234.754V201.088H529.515V243.421Z" fill="#96B9D3"/>
<path fill-rule="evenodd" clip-rule="evenodd" d="M54.1836 199.088V165.421C54.1836 160.638 58.0666 156.754 62.8496 156.754H95.7366V199.088H54.1836ZM97.7366 156.754H139.039V199.088H97.7366V156.754ZM141.039 156.754H183.184V199.088H141.039V156.754ZM185.184 156.754H226.533V199.088H185.184V156.754ZM228.533 156.754H269.835V199.088H228.533V156.754ZM271.835 156.754H305.517C310.3 156.754 314.184 160.638 314.184 165.421V199.088H271.835V156.754ZM314.184 201.088V234.754C314.184 239.538 310.3 243.421 305.517 243.421H271.835V201.088H314.184ZM269.835 243.421H228.533V201.088H269.835V243.421ZM226.533 243.421H185.184V201.088H226.533V243.421ZM183.184 243.421H141.039V201.088H183.184V243.421ZM139.039 243.421H97.7366V201.088H139.039V243.421ZM95.7366 243.421H62.8496C58.0666 243.421 54.1836 239.538 54.1836 234.754V201.088H95.7366V243.421Z" fill="#96B9D3"/>
<path fill-rule="evenodd" clip-rule="evenodd" d="M401.075 141.958L468.34 179.26L401.075 235.78L333.809 179.26L401.075 141.958Z" fill="white"/>
<path fill-rule="evenodd" clip-rule="evenodd" d="M356.82 206.05L401.076 243.236L445.332 206.05V249.522C415.828 263.604 386.324 264.47 356.82 249.522V206.05Z" fill="white"/>
<path d="M64.9312 123.532C72.4489 123.532 78.1699 119.276 78.1699 112.704C78.1699 106.842 73.6309 104.005 67.7208 101.404C63.2291 99.4657 59.7775 98.4255 59.7775 95.494C59.7775 92.8936 62.4726 90.7659 65.9241 90.7659C68.6191 90.7659 71.1723 92.1844 72.3543 94.6903L76.6569 91.6643C75.1439 87.5981 71.1723 85.0449 65.8768 85.0449C59.1629 85.0449 53.8674 89.3002 53.8674 95.3522C53.8674 101.215 58.7374 103.485 63.0872 105.423C67.4371 107.267 72.3543 109.347 72.3543 112.799C72.3543 115.636 69.1865 117.669 64.9785 117.669C61.3851 117.669 58.3118 116.014 56.657 113.083L52.0234 116.392C54.1511 120.695 58.7846 123.532 64.9312 123.532Z" fill="white"/>
<path d="M126.574 122.917H132.39V110.009H139.009C146.196 110.009 152.106 104.619 152.106 97.9996C152.106 91.2384 146.196 85.7065 139.009 85.7065H126.574V122.917ZM139.009 104.241L132.39 104.193V91.4748H139.009C142.981 91.4748 146.243 94.359 146.243 97.9523C146.243 101.404 142.981 104.241 139.009 104.241Z" fill="white"/>
<path d="M219.136 122.917H225.472L207.978 84.9502H207.599L190.105 122.917H196.441L198.994 117.243H216.583L219.136 122.917ZM201.264 112.231L207.789 97.7161L214.313 112.231H201.264Z" fill="white"/>
<path d="M286.998 123.532C292.53 123.532 296.643 121.073 299.858 117.953L296.454 113.224C293.901 115.778 290.638 117.669 286.809 117.669C280.142 117.669 273.617 111.853 273.617 104.336C273.617 96.9125 280.047 91.0023 286.809 91.0023C290.449 91.0023 293.853 92.7045 296.454 95.3049L299.858 90.7187C296.218 87.1726 291.726 85.1395 286.903 85.0449C276.454 85.0449 267.707 93.8392 267.707 104.336C267.707 114.832 276.454 123.532 286.998 123.532Z" fill="white"/>
<path d="M369.987 91.4276V85.7065H347.859V122.917H369.987V117.101H353.675V106.794H367.765V100.978H353.675V91.4276H369.987Z" fill="white"/>
<path d="M436.947 123.532C442.479 123.532 446.592 121.073 449.807 117.953L446.403 113.224C443.85 115.778 440.588 117.669 436.758 117.669C430.091 117.669 423.566 111.853 423.566 104.336C423.566 96.9125 429.997 91.0023 436.758 91.0023C440.398 91.0023 443.803 92.7045 446.403 95.3049L449.807 90.7187C446.167 87.1726 441.675 85.1395 436.852 85.0449C426.403 85.0449 417.656 93.8392 417.656 104.336C417.656 114.832 426.403 123.532 436.947 123.532Z" fill="white"/>
<path d="M525.421 122.917L514.593 108.023C518.849 106.652 521.969 102.444 521.969 97.6687C521.969 91.0493 516.296 85.7065 509.345 85.7065H497.809V122.917H503.671V108.496H508.21L518.234 122.917H525.421ZM503.624 103.673V91.4748H509.487C512.939 91.4748 515.965 94.0753 515.965 97.5268C515.965 100.836 512.986 103.673 509.487 103.673H503.624Z" fill="white"/>
<path d="M598.679 122.917H605.015L587.521 84.9502H587.142L569.648 122.917H575.984L578.537 117.243H596.126L598.679 122.917ZM580.807 112.231L587.332 97.7161L593.856 112.231H580.807Z" fill="white"/>
<path d="M674.639 91.4279V85.6123H652.512V122.964H658.327V107.172H672.417V101.357H658.327V91.4279H674.639Z" fill="white"/>
<path d="M745.98 85.7065H720.164V91.4748H730.14V122.917H736.003V91.4748H745.98V85.7065Z" fill="white"/>
</svg>
